<?xml version="1.0" encoding="UTF-8" standalone="no"?>
<!-- Created with Inkscape (http://www.inkscape.org/) -->

<svg
   xmlns:dc="http://purl.org/dc/elements/1.1/"
   xmlns:cc="http://creativecommons.org/ns#"
   xmlns:rdf="http://www.w3.org/1999/02/22-rdf-syntax-ns#"
   xmlns:svg="http://www.w3.org/2000/svg"
   xmlns="http://www.w3.org/2000/svg"
   xmlns:sodipodi="http://sodipodi.sourceforge.net/DTD/sodipodi-0.dtd"
   xmlns:inkscape="http://www.inkscape.org/namespaces/inkscape"
   width="24"
   height="24"
   viewBox="0 0 6.3499999 6.3500002"
   version="1.1"
   id="svg123"
   inkscape:version="0.92.5 (2060ec1f9f, 2020-04-08)"
   sodipodi:docname="icon.svg"
   inkscape:export-filename="/media/tomsneddon/CS_BACKUP/toms-recaptcha/assets/icon/icon-128x128.png"
   inkscape:export-xdpi="512"
   inkscape:export-ydpi="512">
  <defs
     id="defs117">
    <clipPath
       id="ytp-svg-volume-animation-mask">
      <path
         id="path910"
         d="M 14.35,-0.14 8.49,5.72 29.22,26.5 35.08,20.59 Z"
         inkscape:connector-curvature="0" />
      <path
         id="path912"
         d="M 7.07,6.87 -1.11,15.33 19.61,36.11 27.8,27.6 Z"
         inkscape:connector-curvature="0" />
      <path
         id="path914"
         d="M 9.09,5.2 6.47,7.88 26.82,28.77 29.66,25.99 Z"
         class="ytp-svg-volume-animation-mover"
         inkscape:connector-curvature="0" />
    </clipPath>
    <clipPath
       id="ytp-svg-volume-animation-slash-mask">
      <path
         id="path917"
         d="m -11.45,-15.55 -4.44,4.51 L 4.56,9.9 9.11,5.24 Z"
         class="ytp-svg-volume-animation-mover"
         inkscape:connector-curvature="0" />
    </clipPath>
  </defs>
  <sodipodi:namedview
     id="base"
     pagecolor="#ffffff"
     bordercolor="#666666"
     borderopacity="1.0"
     inkscape:pageopacity="0.0"
     inkscape:pageshadow="2"
     inkscape:zoom="47.510483"
     inkscape:cx="4.6959562"
     inkscape:cy="16.154058"
     inkscape:document-units="mm"
     inkscape:current-layer="layer1"
     showgrid="false"
     units="px"
     inkscape:window-width="2560"
     inkscape:window-height="1349"
     inkscape:window-x="0"
     inkscape:window-y="0"
     inkscape:window-maximized="1" />
  <metadata
     id="metadata120">
    <rdf:RDF>
      <cc:Work
         rdf:about="">
        <dc:format>image/svg+xml</dc:format>
        <dc:type
           rdf:resource="http://purl.org/dc/dcmitype/StillImage" />
        <dc:title />
      </cc:Work>
    </rdf:RDF>
  </metadata>
  <g
     inkscape:label="TomSneddon"
     inkscape:groupmode="layer"
     id="layer1"
     transform="translate(0,-290.64998)">
    <path
       inkscape:connector-curvature="0"
       id="path3645"
       style="fill:#1c3aa9;stroke-width:0.02847252"
       d="m 6.3500002,294.57397 c -1.138e-4,-0.0348 -9.252e-4,-0.0695 -0.00248,-0.10399 v -1.96637 l -0.5436183,0.54362 c -0.4449214,-0.5446 -1.1217617,-0.89244 -1.8798807,-0.89244 -0.788953,0 -1.4898586,0.37658 -1.9329287,0.95978 l 0.8910576,0.90043 c 0.087324,-0.1615 0.2113764,-0.30021 0.3609522,-0.40498 0.1555636,-0.12139 0.3759822,-0.22065 0.6808899,-0.22065 0.036835,0 0.065266,0.004 0.086156,0.0124 0.377781,0.0298 0.7052442,0.23831 0.8980571,0.54091 l -0.6307342,0.63074 c 0.7989031,-0.003 1.7014146,-0.005 2.0724621,4e-4" />
    <path
       inkscape:connector-curvature="0"
       id="path3647"
       style="fill:#4285f4;stroke-width:0.02847252"
       d="m 3.9098462,292.15487 c -0.034844,1.2e-4 -0.069501,9.3e-4 -0.1039905,0.002 H 1.8394899 l 0.5436186,0.54361 c -0.544602,0.44493 -0.8924458,1.12177 -0.8924458,1.87989 0,0.78895 0.3765893,1.48985 0.9597827,1.93292 l 0.900429,-0.89105 c -0.1614987,-0.0873 -0.3002105,-0.21138 -0.4049761,-0.36096 -0.1213916,-0.15556 -0.2206557,-0.37598 -0.2206557,-0.68089 0,-0.0368 0.0043,-0.0653 0.012413,-0.0861 0.029817,-0.37778 0.2383056,-0.70525 0.5409109,-0.89806 l 0.6307345,0.63073 c -0.00314,-0.7989 -0.00498,-1.70141 4.065e-4,-2.07246" />
    <path
       inkscape:connector-curvature="0"
       id="path3649"
       style="fill:#ababab;stroke-width:0.02847252"
       d="m 1.4907495,294.5808 c 1.166e-4,0.0348 9.252e-4,0.0695 0.00248,0.10399 v 1.96636 l 0.5436184,-0.54362 c 0.4449214,0.54461 1.1217616,0.89245 1.8798807,0.89245 0.7889529,0 1.4898585,-0.37658 1.9329288,-0.95978 l -0.8910575,-0.90043 c -0.087324,0.1615 -0.2113765,0.30021 -0.3609526,0.40497 -0.1555634,0.1214 -0.3759819,0.22066 -0.6808898,0.22066 -0.036835,0 -0.065266,-0.004 -0.086155,-0.0124 -0.377781,-0.0298 -0.7052446,-0.23831 -0.8980571,-0.54091 l 0.630734,-0.63074 c -0.7989029,0.003 -1.7014146,0.005 -2.0724619,-4e-4" />
    <g
       id="g100"
       transform="matrix(0.0013514,0,0,0.0013514,0.05294556,290.45248)"
       style="display:inline">
      <path
         id="path2"
         p-id="1453"
         d="M 216.82711,371.92173 A 561.95381,561.95381 0 0 0 87.554021,722.56665 h -0.0844 v 343.78145 c 0,0.8514 0.695996,1.5452 1.580708,1.5452 H 353.80593 a 1.577245,1.577245 0 0 0 1.58027,-1.5733 v -43.2994 a 377.8524,377.8524 0 0 1 -136.91562,-290.43039 377.8524,377.8524 0 0 1 3.39298,-47.54243 377.8524,377.8524 0 0 1 2.10746,-12.67943 377.8524,377.8524 0 0 1 7.54429,-35.66331 377.8524,377.8524 0 0 1 3.17484,-11.46403 377.8524,377.8524 0 0 1 15.22924,-42.30905 377.8524,377.8524 0 0 1 0.68821,-1.74215 377.8524,377.8524 0 0 1 23.85562,-45.51201 v -0.0983 a 377.8524,377.8524 0 0 1 210.0277,-163.65868 z"
         inkscape:connector-curvature="0" />
      <path
         id="path4"
         p-id="1454"
         d="m 25.330308,199.5856 m 40.701499,0 H 837.19959 q 40.7015,0 40.7015,40.70151 v 69.35334 q 0,40.7015 -40.7015,40.7015 H 66.031807 q -40.701499,0 -40.701499,-40.7015 V 240.2871 q 0,-40.70149 40.701499,-40.7015 z"
         inkscape:connector-curvature="0" />
      <path
         id="path6"
         p-id="1455"
         d="m 724.21316,1033.0035 a 67.266656,67.266656 0 0 1 -91.4707,-5.5208 L 377.79053,731.70507 a 67.266656,67.266656 0 0 1 38.7425,-106.93542 l 27.91992,-6.85262 -0.81632,-0.94661 257.41951,-64.27577 257.3667,-64.28227 -101.50638,245.1543 -101.50466,245.10367 -0.24455,-0.28394 -10.87148,26.63089 a 67.266656,67.266656 0 0 1 -20.08261,27.9862 z m 4.48719,-198.2477 a 29.021487,29.021487 0 0 0 8.63935,-12.08731 l 4.68629,-11.52376 0.1489,0.17184 43.77158,-105.73301 43.80405,-105.81048 -111.06248,27.78185 -111.03348,27.70135 0.3216,0.37267 -12.08904,2.93591 a 29.021487,29.021487 0 0 0 -16.66063,46.19113 l 109.97087,127.58027 a 29.021487,29.021487 0 0 0 39.47875,2.39097 z"
         inkscape:connector-curvature="0"
         style="fill:#ff0000" />
      <path
         id="path8"
         p-id="1456"
         d="m 1142.5957,442.06154 -80.3824,120.35195 a 372.55322,372.55322 0 0 1 42.1125,171.18868 372.55322,372.55322 0 0 1 -81.0498,231.93038 v 85.01805 a 1.566857,1.566857 0 0 0 1.5807,1.5807 h 11.6961 A 368.64863,293.12091 0 0 0 1205.627,939.56946 v -344.4212 l 65.4055,-153.08629 z m 210.47,0 -65.4055,153.08628 h 59.4134 v 0.11947 h 141.8265 v -0.15453 h 84.5545 c -18.3045,-52.51352 -17.931,-102.77631 13.7684,-152.56688 0.1026,-0.16145 0.2402,-0.3229 0.3441,-0.48478 z"
         inkscape:connector-curvature="0" />
      <path
         id="path10"
         p-id="1457"
         d="m 1347.0714,650.28389 m 71.1972,0 h 5e-4 q 71.1972,0 71.1972,71.19722 v 106.66835 q 0,71.19722 -71.1972,71.19722 h -5e-4 q -71.1972,0 -71.1972,-71.19722 V 721.48111 q 0,-71.19722 71.1972,-71.19722 z"
         inkscape:connector-curvature="0" />
      <path
         inkscape:export-ydpi="96"
         inkscape:export-xdpi="96"
         inkscape:export-filename="/home/tomsneddon/Downloads/TomS.png"
         id="path12"
         p-id="1458"
         d="m 2149.5002,367.68559 c -16.7581,-36.38529 -72.7355,-92.94234 -134.3022,-108.93814 -61.5671,-15.99579 -128.7186,8.5727 -194.4721,45.88642 -65.7539,37.31414 -130.1037,87.37047 -162.2797,137.90984 -32.1764,50.53981 -32.1764,101.55573 -13.0257,154.92843 19.1507,53.3727 57.4474,109.09915 102.1924,133.97106 44.7455,24.87191 95.9367,18.89362 126.767,3.29257 30.8299,-15.60106 41.3014,-40.82616 22.561,-68.2427 -18.7404,-27.41568 -66.6953,-57.02192 -89.9406,-89.55758 -23.2445,-32.53566 -21.7663,-68.18037 7.3789,-104.6691 29.1453,-36.48873 85.9582,-73.90546 141.3981,-80.17202 55.4399,-6.26656 110.837,19.22906 149.4297,23.71235 38.5927,4.48372 61.0512,-11.73498 44.2932,-48.1207 z"
         inkscape:connector-curvature="0" />
      <path
         id="path14"
         p-id="1459"
         d="m 1991.5921,643.4066 c -18.137,-0.39042 -28.5982,17.5791 -29.8266,45.47695 -1.7083,38.81478 14.6562,97.5637 -0.3441,151.30215 -9.3994,33.67444 -30.9592,65.93266 -55.7537,90.98247 l 139.9013,30.94326 c 37.0796,-51.40417 62.1082,-105.05215 56.9553,-159.3944 -6.0051,-63.32701 -52.9464,-127.58201 -86.2057,-149.91189 -9.354,-6.27955 -17.6293,-9.24532 -24.7265,-9.39854 z m -342.7357,197.36948 c -13.8291,0.6934 -27.2352,9.57601 -38.6564,25.30258 -20.3038,27.95802 -34.3436,77.54646 -16.9009,125.67624 17.4424,48.1307 66.3751,94.8009 116.025,122.1928 49.6494,27.3914 100.0131,35.4984 155.0249,11.7662 43.2972,-18.679 89.4438,-57.1055 130.2007,-101.3718 l -197.4539,-43.6647 c -15.2098,-2.77793 -29.2003,-10.51699 -41.81,-22.99126 -28.4268,-28.12162 -50.0356,-80.17634 -74.1236,-103.03645 -10.5387,-10.00148 -21.5499,-14.41335 -32.3058,-13.87361 z"
         inkscape:connector-curvature="0" />
    </g>
  </g>
</svg>
